REM DIRINDEX 1\2\3,1\2\4,1\2\5,1\2\6
REM DIRNAME folder01,folder02,folder03,folder04,folder05,folder06
TITLE ""
FILE "124 124.mp3" MP3
  TRACK 01 AUDIO
    TITLE "0:"
    INDEX 01 00:00:00
  TRACK 02 AUDIO
    TITLE "3:cjc157_4627"
    INDEX 01 00:00:13
  TRACK 03 AUDIO
    TITLE "0:"
    INDEX 01 00:01:38
  TRACK 04 AUDIO
    TITLE "4:cjc157_4628"
    INDEX 01 00:02:10
  TRACK 05 AUDIO
    TITLE "0:"
    INDEX 01 00:05:32
  TRACK 06 AUDIO
    TITLE "5:cjc157_4629"
    INDEX 01 00:06:00
  TRACK 07 AUDIO
    TITLE "0:"
    INDEX 01 00:08:24
  TRACK 08 AUDIO
    TITLE "3:cjc157_4630"
    INDEX 01 00:08:68
  TRACK 09 AUDIO
    TITLE "0:"
    INDEX 01 00:10:18
  TRACK 10 AUDIO
    TITLE "4:cjc157_4631"
    INDEX 01 00:10:61
  TRACK 11 AUDIO
    TITLE "0:"
    INDEX 01 00:11:68
  TRACK 12 AUDIO
    TITLE "5:cjc157_4632"
    INDEX 01 00:12:42
  TRACK 13 AUDIO
    TITLE "0:"
    INDEX 01 00:14:53
  TRACK 14 AUDIO
    TITLE "3:cjc157_4633"
    INDEX 01 00:15:21
  TRACK 15 AUDIO
    TITLE "0:"
    INDEX 01 00:16:48
  TRACK 16 AUDIO
    TITLE "4:cjc157_4634"
    INDEX 01 00:17:18
  TRACK 17 AUDIO
    TITLE "0:"
    INDEX 01 00:18:52
  TRACK 18 AUDIO
    TITLE "5:cjc157_4635"
    INDEX 01 00:19:20
  TRACK 19 AUDIO
    TITLE "0:"
    INDEX 01 00:21:21
  TRACK 20 AUDIO
    TITLE "5:cjc157_4636"
    INDEX 01 00:21:68
  TRACK 21 AUDIO
    TITLE "0:"
    INDEX 01 00:24:57
  TRACK 22 AUDIO
    TITLE "3:cjc157_4637"
    INDEX 01 00:25:25
  TRACK 23 AUDIO
    TITLE "0:"
    INDEX 01 00:26:26
  TRACK 24 AUDIO
    TITLE "4:cjc157_4638"
    INDEX 01 00:26:71
  TRACK 25 AUDIO
    TITLE "0:"
    INDEX 01 00:28:23
  TRACK 26 AUDIO
    TITLE "5:cjc157_4639"
    INDEX 01 00:28:68
  TRACK 27 AUDIO
    TITLE "0:"
    INDEX 01 00:31:31
  TRACK 28 AUDIO
    TITLE "5:cjc157_4640"
    INDEX 01 00:32:03
  TRACK 29 AUDIO
    TITLE "0:"
    INDEX 01 00:34:18
  TRACK 30 AUDIO
    TITLE "3:cjc157_4641"
    INDEX 01 00:34:63
  TRACK 31 AUDIO
    TITLE "0:"
    INDEX 01 00:36:09
  TRACK 32 AUDIO
    TITLE "4:cjc157_4642"
    INDEX 01 00:36:56
  TRACK 33 AUDIO
    TITLE "0:"
    INDEX 01 00:37:59
  TRACK 34 AUDIO
    TITLE "5:cjc157_4643"
    INDEX 01 00:38:31
  TRACK 35 AUDIO
    TITLE "0:"
    INDEX 01 00:40:56
  TRACK 36 AUDIO
    TITLE "5:cjc157_4644"
    INDEX 01 00:41:28
  TRACK 37 AUDIO
    TITLE "0:"
    INDEX 01 00:43:33
  TRACK 38 AUDIO
    TITLE "3:cjc157_4645"
    INDEX 01 00:44:11
  TRACK 39 AUDIO
    TITLE "0:"
    INDEX 01 00:45:28
  TRACK 40 AUDIO
    TITLE "4:cjc157_4646"
    INDEX 01 00:46:00
  TRACK 41 AUDIO
    TITLE "0:"
    INDEX 01 00:47:03
  TRACK 42 AUDIO
    TITLE "5:cjc157_4647"
    INDEX 01 00:47:48
  TRACK 43 AUDIO
    TITLE "0:"
    INDEX 01 00:49:12
  TRACK 44 AUDIO
    TITLE "5:cjc157_4648"
    INDEX 01 00:49:61
  TRACK 45 AUDIO
    TITLE "0:"
    INDEX 01 00:51:46
  TRACK 46 AUDIO
    TITLE "5:cjc157_4649"
    INDEX 01 00:52:16
  TRACK 47 AUDIO
    TITLE "0:"
    INDEX 01 00:53:49
  TRACK 48 AUDIO
    TITLE "3:cjc157_4650"
    INDEX 01 00:54:23
  TRACK 49 AUDIO
    TITLE "0:"
    INDEX 01 00:55:38
  TRACK 50 AUDIO
    TITLE "4:cjc157_4651"
    INDEX 01 00:56:10
  TRACK 51 AUDIO
    TITLE "0:"
    INDEX 01 00:57:41
  TRACK 52 AUDIO
    TITLE "5:cjc157_4652"
    INDEX 01 00:58:09
  TRACK 53 AUDIO
    TITLE "0:"
    INDEX 01 01:00:41
  TRACK 54 AUDIO
    TITLE "3:cjc157_4653"
    INDEX 01 01:01:11
  TRACK 55 AUDIO
    TITLE "0:"
    INDEX 01 01:02:55
  TRACK 56 AUDIO
    TITLE "4:cjc157_4654"
    INDEX 01 01:03:27
  TRACK 57 AUDIO
    TITLE "0:"
    INDEX 01 01:04:35
  TRACK 58 AUDIO
    TITLE "5:cjc157_4655"
    INDEX 01 01:05:13
  TRACK 59 AUDIO
    TITLE "0:"
    INDEX 01 01:08:46
  TRACK 60 AUDIO
    TITLE "3:cjc157_4656"
    INDEX 01 01:09:16
  TRACK 61 AUDIO
    TITLE "0:"
    INDEX 01 01:10:30
  TRACK 62 AUDIO
    TITLE "4:cjc157_4657"
    INDEX 01 01:10:73
  TRACK 63 AUDIO
    TITLE "0:"
    INDEX 01 01:12:13
  TRACK 64 AUDIO
    TITLE "5:cjc157_4658"
    INDEX 01 01:12:58
  TRACK 65 AUDIO
    TITLE "0:"
    INDEX 01 01:14:55
  TRACK 66 AUDIO
    TITLE "5:cjc157_4659"
    INDEX 01 01:15:23
  TRACK 67 AUDIO
    TITLE "0:"
    INDEX 01 01:17:10
  TRACK 68 AUDIO
    TITLE "3:cjc157_4660"
    INDEX 01 01:17:59
  TRACK 69 AUDIO
    TITLE "0:"
    INDEX 01 01:18:74
  TRACK 70 AUDIO
    TITLE "4:cjc157_4661"
    INDEX 01 01:19:42
  TRACK 71 AUDIO
    TITLE "0:"
    INDEX 01 01:20:59
  TRACK 72 AUDIO
    TITLE "5:cjc157_4662"
    INDEX 01 01:21:27
  TRACK 73 AUDIO
    TITLE "0:"
    INDEX 01 01:24:22
